<mxfile host="app.diagrams.net" modified="2024-01-19T07:43:28.902Z" agent="Mozilla/5.0 (Windows NT 10.0; Win64; x64) AppleWebKit/537.36 (KHTML, like Gecko) Chrome/101.0.4951.64 Safari/537.36" version="22.1.21" etag="7urWMGyfYGNKR_dMXYWP" type="github">
  <diagram name="第 1 页" id="a8DHweatAIZnIEsyQSuT">
    <mxGraphModel>
      <root>
        <mxCell id="0" />
        <mxCell id="1" parent="0" />
      </root>
    </mxGraphModel>
  </diagram>
</mxfile>
